<svg width="82" height="82" viewBox="0 0 82 82" fill="none" xmlns="http://www.w3.org/2000/svg">
<path d="M82 41C82 63.6437 63.6437 82 41 82C18.3563 82 0 63.6437 0 41C0 18.3563 18.3563 0 41 0C63.6437 0 82 18.3563 82 41ZM22.2337 41C22.2337 51.3643 30.6357 59.7663 41 59.7663C51.3643 59.7663 59.7663 51.3643 59.7663 41C59.7663 30.6357 51.3643 22.2337 41 22.2337C30.6357 22.2337 22.2337 30.6357 22.2337 41Z" fill="#2A2C2E"/>
<rect x="18.3652" y="18.1416" width="46.0111" height="46.0507" rx="19.3362" fill="#2A2C2E"/>
<g clip-path="url(#clip0_2114_1148)">
<path d="M59.1393 41.1639C59.1393 41.3903 59.1393 41.6106 59.1271 41.837C59.1271 41.9471 59.0291 42.0389 58.919 42.0389H47.1765C44.4536 42.0389 42.2507 44.2479 42.2507 46.9647V58.7072C42.2507 58.8173 42.165 58.9091 42.0488 58.9152C41.8224 58.9214 41.6021 58.9275 41.3757 58.9275C41.1493 58.9275 40.9229 58.9275 40.7026 58.9152C40.5924 58.9152 40.5007 58.8173 40.5007 58.7072V46.9647C40.5007 44.2418 38.2917 42.0389 35.5748 42.0389H23.8262C23.7161 42.0389 23.6243 41.9532 23.6182 41.837C23.6121 41.6167 23.606 41.3903 23.606 41.1639C23.606 40.9375 23.606 40.7111 23.6182 40.4908C23.6182 40.3806 23.7161 40.2889 23.8262 40.2889H35.5687C38.2917 40.2889 40.4945 38.0799 40.4945 35.363V23.6206C40.4945 23.5104 40.5802 23.4186 40.6965 23.4125C40.9229 23.4064 41.1432 23.4003 41.3696 23.4003C41.596 23.4003 41.8224 23.4003 42.0427 23.4125C42.1528 23.4125 42.2446 23.5104 42.2446 23.6206V35.5711C42.2446 38.1778 44.3557 40.2889 46.9624 40.2889H58.9129C59.023 40.2889 59.1148 40.3745 59.1209 40.4908C59.1271 40.7172 59.1332 40.9375 59.1332 41.1639H59.1393Z" fill="#F4CE47"/>
</g>
<g clip-path="url(#clip1_2114_1148)">
<path d="M43.8711 10.1464L43.283 10.0731L44.0344 4L44.6861 4.08072L44.0937 8.87608L44.0153 8.98654L43.8722 10.1464H43.8711ZM45.4608 10.4363C45.039 10.3843 44.7073 10.2526 44.4668 10.0412C44.2262 9.83091 44.0725 9.57707 44.0057 9.27968L43.8425 9.2595L43.9909 8.28343L44.1626 8.30468C44.1255 8.601 44.152 8.86015 44.241 9.08319C44.33 9.30623 44.4763 9.48254 44.6808 9.61212C44.8854 9.74169 45.1323 9.82454 45.4216 9.86065C45.6442 9.88826 45.8456 9.88401 46.0247 9.8479C46.2038 9.81179 46.3627 9.73532 46.5026 9.61743C46.6425 9.49953 46.7591 9.32854 46.8513 9.10337C46.9435 8.87821 47.0103 8.59994 47.0505 8.2675C47.0929 7.92338 47.0972 7.63237 47.0622 7.39446C47.0272 7.15655 46.9573 6.96431 46.8534 6.81668C46.7496 6.66905 46.6118 6.55647 46.4401 6.47999C46.2684 6.40352 46.0745 6.35148 45.8572 6.32493C45.5679 6.28882 45.3082 6.309 45.0783 6.38441C44.8483 6.45981 44.6639 6.59364 44.524 6.78482C44.3841 6.97599 44.2951 7.22559 44.2569 7.53359L44.0852 7.51235L44.1817 6.51186L44.3809 6.53629C44.5144 6.30156 44.7296 6.10401 45.0284 5.9447C45.3263 5.78538 45.6866 5.73228 46.1094 5.78432C46.7241 5.86079 47.1671 6.13163 47.4374 6.59789C47.7076 7.06415 47.7988 7.64724 47.7119 8.34822C47.6239 9.05558 47.3844 9.59937 46.9912 9.9796C46.598 10.3598 46.0882 10.5117 45.4608 10.4342V10.4363Z" fill="#F4CE47"/>
<path d="M51.3198 11.8118C50.9054 11.6695 50.5758 11.4507 50.331 11.1533C50.0852 10.857 49.9347 10.5107 49.8774 10.1135C49.8202 9.71734 49.8647 9.30631 50.0099 8.87935C50.1593 8.44176 50.3777 8.08702 50.6627 7.81406C50.9489 7.54217 51.2785 7.36373 51.6547 7.28089C52.0299 7.19698 52.4252 7.22672 52.8385 7.36904C53.2529 7.51137 53.5793 7.72909 53.8188 8.02436C54.0583 8.31856 54.2046 8.66055 54.2586 9.04928C54.3116 9.43801 54.2639 9.85116 54.1145 10.2887C53.9683 10.7146 53.7552 11.0683 53.4733 11.3477C53.1914 11.627 52.8661 11.8097 52.4962 11.8957C52.1263 11.9817 51.7353 11.9531 51.3209 11.8107L51.3198 11.8118ZM51.5116 11.2499C52.0288 11.4273 52.4464 11.4103 52.7633 11.1968C53.0801 10.9834 53.3292 10.6127 53.5104 10.0827C53.6938 9.5474 53.7256 9.09814 53.6047 8.7349C53.485 8.37166 53.166 8.10189 52.6488 7.92452C52.1369 7.74927 51.7183 7.76627 51.3929 7.97656C51.0676 8.18686 50.8132 8.55965 50.6299 9.09495C50.4487 9.62494 50.4222 10.0731 50.5515 10.4385C50.6797 10.8049 50.9998 11.0758 51.5116 11.251V11.2499Z" fill="#F4CE47"/>
<path d="M56.9249 14.4114C56.5486 14.1873 56.271 13.9058 56.0908 13.5649C55.9106 13.224 55.8333 12.8544 55.8576 12.455C55.882 12.0557 56.0092 11.6616 56.2392 11.274C56.4744 10.8757 56.7606 10.573 57.0955 10.3648C57.4304 10.1566 57.7907 10.0504 58.1744 10.0451C58.5591 10.0398 58.9395 10.1492 59.3158 10.3733C59.692 10.5974 59.9675 10.8778 60.1424 11.2155C60.3173 11.5533 60.3904 11.9176 60.3639 12.3084C60.3374 12.6993 60.206 13.0944 59.9707 13.4927C59.7408 13.8803 59.4599 14.182 59.1271 14.3986C58.7943 14.6153 58.4383 14.7268 58.0589 14.7353C57.6794 14.7438 57.3022 14.6355 56.9259 14.4124L56.9249 14.4114ZM57.2269 13.9005C57.6975 14.1798 58.1087 14.2478 58.4626 14.1044C58.8166 13.9611 59.1356 13.6477 59.4207 13.1666C59.709 12.6791 59.8319 12.2458 59.7874 11.8666C59.7439 11.4864 59.4875 11.1571 59.0169 10.8767C58.5517 10.6006 58.1383 10.5315 57.7769 10.6707C57.4156 10.8098 57.0902 11.1231 56.8019 11.6096C56.5168 12.0918 56.3992 12.524 56.4511 12.9096C56.502 13.2941 56.7606 13.6244 57.2258 13.9016L57.2269 13.9005Z" fill="#F4CE47"/>
<path d="M61.0048 17.1763L60.5173 16.7356L64.6092 12.193L65.0967 12.6338L61.0048 17.1763ZM63.4063 19.3494L62.8245 18.8226L63.1986 16.417L62.1166 15.4377L62.5076 15.0033L63.5971 15.9889L65.8831 15.5099L66.4448 16.0176L63.8313 16.5327L63.4074 19.3483L63.4063 19.3494Z" fill="#F4CE47"/>
<path d="M67.5928 25.1452C67.3713 24.7671 67.2632 24.3858 67.2696 24.0003C67.2759 23.6148 67.3861 23.2536 67.5991 22.9148C67.8122 22.576 68.1132 22.2935 68.501 22.0641C68.8985 21.8294 69.2948 21.7019 69.688 21.6817C70.0812 21.6616 70.4479 21.7423 70.787 21.9228C71.1262 22.1045 71.407 22.3838 71.6285 22.7619C71.85 23.14 71.957 23.5181 71.9475 23.8983C71.938 24.2786 71.8277 24.6333 71.6158 24.9636C71.4038 25.2939 71.0997 25.5754 70.7012 25.8112C70.3133 26.0395 69.9222 26.168 69.5269 26.1967C69.1316 26.2254 68.7649 26.151 68.429 25.9758C68.093 25.7995 67.8132 25.5223 67.5917 25.1452H67.5928ZM68.1036 24.8436C68.3813 25.3162 68.7088 25.5743 69.0882 25.6189C69.4676 25.6635 69.8968 25.5446 70.379 25.2599C70.8655 24.9721 71.1813 24.6524 71.3265 24.2977C71.4706 23.944 71.4049 23.5308 71.1272 23.0582C70.8527 22.5909 70.5242 22.3317 70.1406 22.2786C69.7569 22.2255 69.3213 22.3434 68.8349 22.6302C68.3527 22.9148 68.0421 23.2377 67.9023 23.5988C67.7624 23.961 67.8291 24.3752 68.1036 24.8415V24.8436Z" fill="#F4CE47"/>
<path d="M69.9045 29.7795L69.6755 29.1731L74.0483 27.513C74.3376 27.4026 74.6015 27.3611 74.8389 27.3888C75.0763 27.4153 75.2872 27.5151 75.4726 27.6851C75.657 27.8561 75.8086 28.0982 75.9273 28.4116C75.9506 28.4742 75.9729 28.5369 75.9941 28.6006C76.0153 28.6643 76.0375 28.727 76.0608 28.7897L75.5574 28.9808L75.3762 28.5029C75.2819 28.2522 75.1611 28.0897 75.0159 28.0143C74.8707 27.9389 74.6926 27.9421 74.4828 28.0218L74.0059 28.2034L73.8331 28.2884L69.9034 29.7795H69.9045ZM74.0324 29.5607L73.122 27.1519L73.6508 26.9512L74.5612 29.36L74.0324 29.5607Z" fill="#F4CE47"/>
<path d="M71.7168 37.6465C71.6701 37.2355 71.7263 36.902 71.8874 36.6481C72.0474 36.3932 72.3632 36.2392 72.8349 36.1861L75.9591 35.8282L77.2012 35.86L77.2563 36.3412L72.8741 36.8436C72.6081 36.8744 72.4427 36.9604 72.376 37.1027C72.3103 37.245 72.2933 37.4617 72.3262 37.7516L72.394 38.3411L71.8683 38.4016C71.8471 38.3241 71.8217 38.22 71.7909 38.0883C71.7602 37.9566 71.7358 37.8101 71.7178 37.6465H71.7168ZM75.7154 37.9598L75.3921 35.1283L75.9538 35.0635L76.2771 37.895L75.7154 37.9598Z" fill="#F4CE47"/>
<path d="M71.656 44.3997L71.6973 43.7529L74.3172 43.9196C74.8025 43.9504 75.1608 43.8803 75.395 43.7093C75.6281 43.5383 75.7595 43.225 75.7882 42.7694C75.8168 42.3254 75.7288 41.9781 75.5253 41.7275C75.3218 41.4768 74.9594 41.3345 74.438 41.3016L74.4486 41.1284L75.5285 41.2336L75.5179 41.4067C75.6536 41.4757 75.7903 41.5777 75.9281 41.7115C76.0658 41.8453 76.175 42.0206 76.2555 42.2362C76.3361 42.4518 76.3668 42.712 76.3477 43.0158C76.3234 43.4045 76.2237 43.7189 76.051 43.9579C75.8772 44.1968 75.6504 44.3657 75.3706 44.4634C75.0908 44.5611 74.7771 44.5994 74.4316 44.5771L71.6571 44.3997H71.656ZM71.8637 41.1359L71.9051 40.4795L77.9989 40.8682L77.9576 41.5246L71.8637 41.1359Z" fill="#F4CE47"/>
<path d="M70.6646 48.5771C70.7886 48.1246 70.9878 47.772 71.2655 47.5203C71.5421 47.2675 71.8717 47.1114 72.2532 47.0519C72.6348 46.9924 73.0449 47.0232 73.4847 47.1432C73.9245 47.2632 74.2902 47.4523 74.5827 47.7093C74.8752 47.9664 75.0776 48.2722 75.1921 48.6291C75.3055 48.9849 75.3055 49.3715 75.1921 49.7889C75.0956 50.1415 74.9388 50.4442 74.7226 50.697C74.5053 50.9498 74.2319 51.1229 73.9012 51.2153C73.5706 51.3077 73.188 51.295 72.7545 51.176C72.6549 51.1484 72.5585 51.1187 72.4673 51.0879C72.3751 51.056 72.3009 51.0263 72.2458 50.9986L73.2198 47.43L73.6861 47.5574L72.8393 50.6588L72.7535 50.5218C73.1149 50.6524 73.4222 50.6981 73.6744 50.6609C73.9277 50.6227 74.1344 50.5154 74.2965 50.3391C74.4576 50.1628 74.5795 49.927 74.659 49.6338C74.8021 49.1113 74.7565 48.7045 74.5244 48.4135C74.2923 48.1225 73.9267 47.909 73.4286 47.772L73.2706 47.7284C72.9305 47.635 72.6252 47.6021 72.3529 47.6286C72.0816 47.6552 71.8516 47.7529 71.6629 47.9228C71.4753 48.0917 71.3302 48.3615 71.2295 48.7321C71.1108 49.1665 71.115 49.5043 71.2411 49.7443C71.3672 49.9843 71.5601 50.1394 71.8177 50.2106L71.8791 50.2276L71.7064 50.8616L71.6269 50.8404C71.3513 50.765 71.1235 50.6173 70.9444 50.3975C70.7653 50.1776 70.6487 49.9111 70.5957 49.5967C70.5427 49.2823 70.566 48.9435 70.6657 48.5792L70.6646 48.5771Z" fill="#F4CE47"/>
<path d="M65.8435 58.7609L66.1625 58.2713L67.1396 58.9096L67.2785 58.9128L71.3163 61.5531L70.9581 62.1044L65.8435 58.7609ZM66.9669 56.8672C67.3124 56.3361 67.7564 56.044 68.3001 55.9888C68.8438 55.9336 69.414 56.1003 70.0085 56.4901C70.5988 56.8757 70.9835 57.3239 71.1637 57.8337C71.3428 58.3435 71.2654 58.8565 70.9305 59.3716C70.691 59.7391 70.4155 59.9844 70.1039 60.1066C69.7913 60.2298 69.5083 60.2627 69.2561 60.2064L69.1469 60.3742L68.315 59.7975L68.4093 59.652C68.6689 59.8219 68.9169 59.9143 69.1533 59.9313C69.3896 59.9473 69.6079 59.8963 69.8093 59.7763C70.0106 59.6573 70.1919 59.4725 70.3551 59.2218C70.4748 59.0381 70.5607 58.8565 70.6126 58.6759C70.6645 58.4954 70.6698 58.3148 70.6274 58.1353C70.585 57.9548 70.4844 57.7753 70.3265 57.5947C70.1675 57.4142 69.9439 57.2304 69.6535 57.0403C69.3737 56.8576 69.1183 56.728 68.8873 56.6537C68.6562 56.5793 68.4506 56.557 68.2715 56.5889C68.0913 56.6197 67.9281 56.6951 67.7819 56.8141C67.6356 56.933 67.5032 57.0838 67.3834 57.2676C67.2212 57.5172 67.1248 57.7593 67.0951 57.9951C67.0655 58.2298 67.1068 58.4539 67.2191 58.6653C67.3315 58.8767 67.5127 59.0646 67.7617 59.2271L67.6674 59.3727L66.8281 58.8565L66.9128 58.7269C66.7263 58.489 66.632 58.2086 66.6278 57.8857C66.6235 57.5628 66.738 57.223 66.9701 56.8661L66.9669 56.8672Z" fill="#F4CE47"/>
<path d="M61.8318 63.1395L62.2483 62.7168L62.9425 63.4029L63.1173 63.5378L64.3308 64.7379C64.6116 65.0162 64.8787 65.1522 65.1331 65.1458C65.3863 65.1394 65.6651 64.9833 65.9682 64.6753C66.2586 64.38 66.4112 64.106 66.4271 63.8522C66.443 63.5983 66.3211 63.3424 66.0614 63.0864L65.9703 62.9961L66.4186 62.5405L66.4642 62.5851C66.6931 62.8113 66.8446 63.0683 66.9167 63.354C66.9898 63.6397 66.9792 63.9361 66.887 64.2419C66.7948 64.5478 66.6136 64.8378 66.3444 65.1107C66.0583 65.4007 65.7679 65.5834 65.4711 65.6588C65.1754 65.7342 64.8893 65.7225 64.6138 65.6259C64.3382 65.5281 64.0796 65.3603 63.8369 65.1203L61.8328 63.1374L61.8318 63.1395ZM63.4119 61.404C63.7023 61.1088 64.016 60.9356 64.353 60.8847C64.6901 60.8326 64.9942 60.942 65.2666 61.2107C65.4478 61.3902 65.5559 61.5846 65.5898 61.7928C65.6237 62.0009 65.593 62.225 65.4976 62.4651C65.4022 62.7051 65.2592 62.9568 65.0673 63.2202L64.0383 64.5765L63.6886 64.2303L64.672 62.9058C64.8935 62.6201 65.0218 62.3896 65.0578 62.2155C65.0928 62.0402 65.0218 61.866 64.8448 61.6908C64.6805 61.5283 64.5046 61.4635 64.3181 61.4975C64.1315 61.5315 63.9164 61.6717 63.6727 61.9181C63.4893 62.1039 63.3505 62.3164 63.2583 62.5543C63.165 62.7922 63.1417 63.0375 63.1862 63.2914C63.2307 63.5452 63.3802 63.798 63.6356 64.0508L62.7549 63.3593L62.8831 63.268C62.8174 63.0917 62.7898 62.8973 62.7983 62.6839C62.8079 62.4704 62.8619 62.2548 62.9615 62.037C63.0612 61.8193 63.2116 61.6079 63.4119 61.404Z" fill="#F4CE47"/>
<path d="M58.8008 63.5952C58.8855 63.5368 58.9788 63.4816 59.0795 63.4295C59.1812 63.3785 59.2586 63.3445 59.3137 63.3286L59.6083 63.7577L59.1886 64.0477C59.0233 64.1613 58.9184 64.2696 58.8739 64.3705C58.8294 64.4714 58.8241 64.618 58.859 64.8081L59.035 65.6748L58.9216 65.3976L63.0834 68.0018L62.4984 68.4065L60.205 66.9408L59.1961 66.2961L59.1431 66.3322L59.4165 67.4857L60.0142 70.1239L59.4292 70.5286L58.2793 64.9653C58.2221 64.7316 58.2126 64.5288 58.2528 64.3567C58.2931 64.1847 58.3588 64.0392 58.451 63.9202C58.5432 63.8012 58.6587 63.6929 58.7986 63.5963L58.8008 63.5952Z" fill="#F4CE47"/>
<path d="M37.6184 70.5678C38.0402 70.6187 38.372 70.7494 38.6136 70.9597C38.8542 71.17 39.0089 71.4227 39.0767 71.7201L39.2399 71.7403L39.0947 72.7164L38.9231 72.6951C38.9591 72.3988 38.9315 72.1397 38.8425 71.9166C38.7535 71.6946 38.6062 71.5183 38.4016 71.3887C38.1971 71.2592 37.9502 71.1774 37.6598 71.1423C37.4362 71.1158 37.2359 71.12 37.0567 71.1561C36.8776 71.1923 36.7187 71.2698 36.5788 71.3877C36.4389 71.5056 36.3234 71.6776 36.2322 71.9017C36.1411 72.1269 36.0754 72.4052 36.0351 72.7376C35.9938 73.0817 35.9906 73.3727 36.0256 73.6107C36.0616 73.8475 36.1315 74.0408 36.2354 74.1884C36.3403 74.3361 36.4781 74.4476 36.6498 74.5241C36.8215 74.6005 37.0154 74.6515 37.2327 74.6781C37.522 74.7131 37.7817 74.6929 38.0116 74.6165C38.2416 74.54 38.426 74.4062 38.5648 74.2139C38.7047 74.0228 38.7927 73.7721 38.8298 73.4641L39.0015 73.4853L38.9082 74.4858L38.709 74.4614C38.5765 74.6972 38.3614 74.8947 38.0636 75.0551C37.7658 75.2155 37.4054 75.2696 36.9836 75.2187C36.3689 75.1443 35.9249 74.8735 35.6536 74.4083C35.3823 73.9431 35.289 73.36 35.3738 72.658C35.4596 71.9506 35.6981 71.4057 36.0902 71.0245C36.4823 70.6421 36.9921 70.4902 37.6195 70.5656L37.6184 70.5678ZM39.2092 70.8524L39.7974 70.9236L39.0629 76.9987L38.4112 76.9201L38.9909 72.1237L39.0682 72.0133L39.2081 70.8524H39.2092Z" fill="#F4CE47"/>
<path d="M31.6676 69.1776C32.0819 69.3199 32.4105 69.5398 32.6564 69.8361C32.9012 70.1325 33.0527 70.4798 33.11 70.8759C33.1672 71.2721 33.1227 71.6831 32.9764 72.1101C32.827 72.5477 32.6087 72.9024 32.3236 73.1743C32.0374 73.4462 31.7068 73.6236 31.3316 73.7075C30.9564 73.7914 30.5611 73.7616 30.1478 73.6193C29.7345 73.477 29.407 73.2582 29.1675 72.964C28.928 72.6698 28.7817 72.3278 28.7277 71.9391C28.6747 71.5503 28.7224 71.1372 28.8718 70.6996C29.0181 70.2737 29.2321 69.92 29.5141 69.6407C29.796 69.3614 30.1224 69.1787 30.4912 69.0927C30.8611 69.0077 31.2521 69.0353 31.6665 69.1776H31.6676ZM31.4757 69.7395C30.9586 69.5621 30.541 69.5791 30.2241 69.7926C29.9072 70.005 29.6582 70.3767 29.477 70.9067C29.2936 71.442 29.2618 71.8913 29.3816 72.2545C29.5013 72.6178 29.8203 72.8875 30.3375 73.066C30.8494 73.2423 31.268 73.2242 31.5934 73.015C31.9187 72.8047 32.1731 72.4319 32.3564 71.8966C32.5377 71.3666 32.5642 70.9184 32.4359 70.553C32.3077 70.1866 31.9876 69.9158 31.4757 69.7405V69.7395Z" fill="#F4CE47"/>
<path d="M25.962 66.516C26.3372 66.7412 26.6138 67.0248 26.7929 67.3657C26.971 67.7066 27.0473 68.0773 27.0208 68.4767C26.9943 68.876 26.866 69.269 26.635 69.6556C26.3976 70.0528 26.1115 70.3545 25.7755 70.5605C25.4395 70.7665 25.0792 70.8717 24.6945 70.8749C24.3098 70.8781 23.9304 70.7676 23.5552 70.5424C23.1801 70.3173 22.9056 70.0358 22.7328 69.697C22.5601 69.3593 22.4869 68.9939 22.5156 68.6031C22.5442 68.2122 22.6767 67.8182 22.914 67.4209C23.1451 67.0343 23.428 66.7338 23.7619 66.5192C24.0957 66.3047 24.4529 66.1942 24.8312 66.1868C25.2106 66.1804 25.5879 66.2898 25.9631 66.515L25.962 66.516ZM25.6579 67.0248C25.1884 66.7433 24.7772 66.6732 24.4232 66.8155C24.0692 66.9579 23.7481 67.2691 23.4609 67.7502C23.1705 68.2356 23.0465 68.6689 23.0879 69.0491C23.1302 69.4294 23.3857 69.7597 23.8541 70.0422C24.3183 70.3205 24.7305 70.3916 25.093 70.2536C25.4554 70.1155 25.7808 69.8043 26.0712 69.3189C26.3584 68.8378 26.4771 68.4055 26.4273 68.021C26.3775 67.6366 26.121 67.3041 25.6568 67.0258L25.6579 67.0248Z" fill="#F4CE47"/>
<path d="M19.4866 61.5361L20.0663 62.0651L19.6806 64.4686L20.7584 65.4531L20.3652 65.8854L19.281 64.8945L16.9929 65.3629L16.4333 64.852L19.0489 64.3496L19.4866 61.5361ZM21.8775 63.7209L22.3629 64.1638L18.2488 68.6862L17.7634 68.2433L21.8775 63.7209Z" fill="#F4CE47"/>
<path d="M15.3275 55.7145C15.5479 56.0936 15.6539 56.476 15.6454 56.8605C15.6369 57.246 15.5256 57.6071 15.3095 57.9438C15.0943 58.2805 14.7923 58.563 14.4033 58.7892C14.0048 59.0218 13.6085 59.1472 13.2142 59.1663C12.821 59.1843 12.4544 59.1025 12.1163 58.9188C11.7782 58.7351 11.4984 58.4547 11.279 58.0755C11.0586 57.6963 10.9547 57.3172 10.9653 56.9369C10.977 56.5567 11.0893 56.203 11.3024 55.8738C11.5154 55.5445 11.8217 55.2641 12.2212 55.0315C12.6101 54.8053 13.0023 54.6779 13.3976 54.6513C13.7939 54.6247 14.1585 54.7002 14.4945 54.8786C14.8294 55.057 15.107 55.3353 15.3275 55.7134V55.7145ZM14.8156 56.0129C14.54 55.5392 14.2136 55.279 13.8353 55.2323C13.4569 55.1855 13.0256 55.3034 12.5423 55.5849C12.0537 55.8695 11.7369 56.1892 11.5906 56.5418C11.4444 56.8955 11.509 57.3087 11.7835 57.7824C12.0559 58.2507 12.3833 58.512 12.767 58.5673C13.1506 58.6225 13.5862 58.5067 14.0748 58.2221C14.5581 57.9406 14.8707 57.6188 15.0127 57.2577C15.1547 56.8966 15.089 56.4824 14.8177 56.014L14.8156 56.0129Z" fill="#F4CE47"/>
<path d="M13.0441 51.0806L13.2709 51.6881L8.89072 53.3269C8.60034 53.4352 8.33645 53.4756 8.09905 53.448C7.86166 53.4193 7.65076 53.3195 7.46741 53.1485C7.28301 52.9764 7.13251 52.7343 7.01594 52.4199C6.99262 52.3572 6.97037 52.2935 6.95023 52.2298C6.93009 52.166 6.90784 52.1023 6.88452 52.0396L7.38793 51.8516L7.56597 52.3307C7.65923 52.5813 7.77899 52.7449 7.92418 52.8213C8.06938 52.8968 8.24742 52.8957 8.45726 52.8171L8.93523 52.6387L9.10798 52.5548L13.0441 51.0816V51.0806ZM8.9151 51.2802L9.81381 53.6933L9.28391 53.8919L8.3852 51.4789L8.9151 51.2813V51.2802Z" fill="#F4CE47"/>
<path d="M11.2675 43.203C11.312 43.6151 11.2537 43.9475 11.0927 44.2014C10.9305 44.4552 10.6147 44.6081 10.1431 44.6591L7.01773 45.0022L5.77565 44.9639L5.72266 44.4828L10.1081 44.0006C10.3741 43.9719 10.5405 43.8859 10.6073 43.7436C10.674 43.6013 10.6921 43.3846 10.6603 43.0947L10.5956 42.5041L11.1213 42.4468C11.1425 42.5243 11.1668 42.6284 11.1965 42.7601C11.2262 42.8918 11.2495 43.0394 11.2675 43.203ZM7.26996 42.8706L7.57942 45.7032L7.01773 45.7648L6.70827 42.9322L7.26996 42.8706Z" fill="#F4CE47"/>
<path d="M11.1371 39.7226L11.0925 40.3789L4.99976 39.9637L5.04427 39.3073L11.1371 39.7226ZM11.3585 36.4598L11.314 37.1066L8.69527 36.9282C8.20989 36.8953 7.85061 36.9632 7.61746 37.1342C7.38324 37.3042 7.25077 37.6175 7.22003 38.0731C7.19036 38.5171 7.2762 38.8644 7.47863 39.1161C7.68105 39.3678 8.04244 39.5112 8.56386 39.5473L8.5522 39.7204L7.47227 39.61L7.48392 39.4369C7.34827 39.3668 7.21262 39.2648 7.0759 39.1299C6.93919 38.995 6.83109 38.8198 6.75054 38.6042C6.67106 38.3886 6.64138 38.1284 6.66152 37.8246C6.68802 37.4359 6.7887 37.1225 6.9625 36.8836C7.13737 36.6457 7.36417 36.4779 7.64501 36.3812C7.92586 36.2846 8.2385 36.2474 8.584 36.2718L11.3575 36.4609L11.3585 36.4598Z" fill="#F4CE47"/>
<path d="M12.3745 32.2646C12.2484 32.716 12.047 33.0675 11.7683 33.3182C11.4906 33.5688 11.1599 33.7239 10.7784 33.7812C10.3969 33.8386 9.98569 33.8057 9.54693 33.6835C9.10818 33.5614 8.7436 33.3702 8.45216 33.1121C8.16178 32.854 7.96041 32.546 7.84807 32.1892C7.73574 31.8323 7.73786 31.4457 7.85443 31.0293C7.95193 30.6778 8.1109 30.3751 8.32922 30.1234C8.54754 29.8717 8.82203 29.7007 9.15375 29.6093C9.48546 29.519 9.86699 29.5339 10.3004 29.655C10.4001 29.6826 10.4955 29.7134 10.5877 29.7453C10.6799 29.7771 10.753 29.8079 10.8081 29.8355L9.81506 33.3989L9.34981 33.2682L10.2125 30.1712L10.2973 30.3082C9.93694 30.1754 9.6296 30.1276 9.3763 30.1648C9.12301 30.202 8.91529 30.3082 8.75314 30.4834C8.59099 30.6597 8.46806 30.8934 8.38645 31.1865C8.24126 31.7091 8.28365 32.1159 8.51469 32.4079C8.74572 32.7 9.11029 32.9156 9.60734 33.0548L9.76525 33.0994C10.1044 33.1939 10.4107 33.2289 10.682 33.2045C10.9543 33.1801 11.1843 33.0824 11.373 32.9146C11.5616 32.7457 11.7079 32.477 11.8107 32.1074C11.9315 31.673 11.9294 31.3363 11.8043 31.0952C11.6792 30.8552 11.4874 30.698 11.2299 30.6257L11.1684 30.6088L11.3454 29.9757L11.4249 29.998C11.7004 30.0745 11.9262 30.2243 12.1053 30.4441C12.2833 30.665 12.3989 30.9327 12.4497 31.2471C12.5006 31.5615 12.4762 31.9013 12.3745 32.2646Z" fill="#F4CE47"/>
<path d="M17.249 22.1066L16.9279 22.5941L15.9539 21.9505L15.8151 21.9462L11.791 19.2857L12.1524 18.7366L17.25 22.1066H17.249ZM16.115 23.9939C15.7674 24.5229 15.3212 24.8128 14.7765 24.8659C14.2328 24.918 13.6637 24.748 13.0702 24.3561C12.482 23.9674 12.0994 23.5171 11.9224 23.0062C11.7454 22.4953 11.826 21.9834 12.1641 21.4693C12.4046 21.1029 12.6823 20.8597 12.9949 20.7386C13.3076 20.6175 13.5906 20.5857 13.8438 20.643L13.9541 20.4752L14.7839 21.0562L14.6885 21.2006C14.4299 21.0296 14.183 20.9351 13.9466 20.9181C13.7103 20.9011 13.492 20.951 13.2896 21.07C13.0882 21.1879 12.9049 21.3716 12.7417 21.6212C12.6208 21.8039 12.5339 21.9855 12.4809 22.1661C12.428 22.3466 12.4216 22.5261 12.4629 22.7067C12.5043 22.8872 12.6039 23.0678 12.7607 23.2484C12.9186 23.4289 13.1412 23.6148 13.4305 23.806C13.7093 23.9908 13.9647 24.1203 14.1946 24.1957C14.4246 24.2712 14.6302 24.2945 14.8104 24.2637C14.9905 24.2329 15.1538 24.1586 15.3011 24.0407C15.4484 23.9228 15.5819 23.772 15.7017 23.5893C15.8659 23.3408 15.9634 23.0986 15.9942 22.8639C16.0249 22.6292 15.9846 22.4051 15.8734 22.1926C15.7621 21.9802 15.5819 21.7922 15.3339 21.6276L15.4293 21.4832L16.2665 22.0036L16.1807 22.1332C16.3662 22.3721 16.4594 22.6525 16.4615 22.9754C16.4637 23.2983 16.3482 23.6371 16.1139 23.9929L16.115 23.9939Z" fill="#F4CE47"/>
<path d="M21.2683 17.7603L20.8507 18.1809L20.1597 17.4916L19.9859 17.3567L18.7788 16.1512C18.499 15.8719 18.232 15.7349 17.9787 15.7391C17.7254 15.7444 17.4466 15.8995 17.1414 16.2054C16.85 16.4985 16.6953 16.7725 16.6794 17.0264C16.6624 17.2802 16.7832 17.5362 17.0418 17.7943L17.1319 17.8845L16.6815 18.3381L16.6359 18.2935C16.408 18.0662 16.2576 17.8091 16.1865 17.5224C16.1155 17.2367 16.1261 16.9403 16.2205 16.6345C16.3148 16.3286 16.496 16.0397 16.7663 15.7678C17.0535 15.4789 17.3449 15.2973 17.6417 15.224C17.9384 15.1507 18.2235 15.1624 18.499 15.2612C18.7746 15.3599 19.0321 15.5288 19.2737 15.7699L21.2693 17.7613L21.2683 17.7603ZM19.6796 19.4883C19.3882 19.7815 19.0734 19.9535 18.7364 20.0034C18.3994 20.0533 18.0952 19.9429 17.8239 19.6731C17.6427 19.4926 17.5367 19.2982 17.5039 19.089C17.471 18.8808 17.5039 18.6567 17.5993 18.4167C17.6957 18.1777 17.8398 17.927 18.0327 17.6636L19.0671 16.3116L19.4158 16.6599L18.4259 17.9791C18.2033 18.2637 18.074 18.4931 18.037 18.6673C18.0009 18.8415 18.0709 19.0167 18.2479 19.193C18.4111 19.3566 18.587 19.4214 18.7735 19.3885C18.96 19.3555 19.1762 19.2164 19.42 18.9711C19.6044 18.7852 19.7432 18.5738 19.8376 18.337C19.9319 18.1002 19.9573 17.8548 19.9139 17.601C19.8704 17.3471 19.722 17.0933 19.4677 16.8394L20.3452 17.5351L20.217 17.6254C20.2816 17.8017 20.3092 17.9971 20.2986 18.2095C20.288 18.423 20.2329 18.6386 20.1322 18.8553C20.0315 19.073 19.881 19.2833 19.6786 19.4862L19.6796 19.4883Z" fill="#F4CE47"/>
<path d="M24.2956 17.3242C24.2098 17.3826 24.1165 17.4367 24.0158 17.4888C23.9141 17.5398 23.8357 17.5727 23.7806 17.5886L23.487 17.1585L23.9088 16.8696C24.0741 16.7559 24.1791 16.6487 24.2246 16.5478C24.2691 16.4469 24.2755 16.3014 24.2416 16.1102L24.0699 15.2435L24.1822 15.5207L20.031 12.8984L20.6181 12.4959L22.9052 13.9722L23.9109 14.6222L23.9639 14.5861L23.6947 13.4316L23.1076 10.7912L23.6947 10.3887L24.8213 15.9572C24.8775 16.1909 24.8859 16.3948 24.8446 16.5658C24.8033 16.7379 24.7365 16.8834 24.6454 17.0013C24.5532 17.1202 24.4366 17.2275 24.2967 17.3231L24.2956 17.3242Z" fill="#F4CE47"/>
<path d="M34.4288 9.87245C34.9029 9.87245 35.2872 9.48728 35.2872 9.01215C35.2872 8.53702 34.9029 8.15186 34.4288 8.15186C33.9546 8.15186 33.5703 8.53702 33.5703 9.01215C33.5703 9.48728 33.9546 9.87245 34.4288 9.87245Z" fill="#F4CE47"/>
<path d="M49.8526 72.2621C50.3267 72.2621 50.711 71.8769 50.711 71.4018C50.711 70.9267 50.3267 70.5415 49.8526 70.5415C49.3785 70.5415 48.9941 70.9267 48.9941 71.4018C48.9941 71.8769 49.3785 72.2621 49.8526 72.2621Z" fill="#F4CE47"/>
</g>
<defs>
<clipPath id="clip0_2114_1148">
<rect width="35.5333" height="35.5333" fill="white" transform="translate(23.604 23.4003)"/>
</clipPath>
<clipPath id="clip1_2114_1148">
<rect x="5" y="4" width="73" height="73" fill="white"/>
</clipPath>
</defs>
</svg>
